<svg width="22" height="18" viewBox="0 0 22 18" fill="none" xmlns="http://www.w3.org/2000/svg">
<path d="M20.6333 1.83683L21.3953 2.48441C21.6441 2.19169 21.7032 1.78233 21.5473 1.43119C21.3915 1.08006 21.0483 0.849234 20.6643 0.837312L20.6333 1.83683ZM8.28341 16.3687L7.28468 16.4192C7.30536 16.8287 7.57393 17.184 7.96223 17.3157C8.35053 17.4474 8.77988 17.3287 9.0454 17.0163L8.28341 16.3687ZM1.57129 1.24497L1.60232 0.245454C1.19249 0.232729 0.816425 0.471473 0.65356 0.847766C0.490695 1.22406 0.57404 1.66164 0.863826 1.95172L1.57129 1.24497ZM20.2277 0.922805L7.43065 6.60229L8.24197 8.43034L21.039 2.75086L20.2277 0.922805ZM19.8713 1.18925L7.52141 15.7211L9.0454 17.0163L21.3953 2.48441L19.8713 1.18925ZM9.28213 16.3183L8.83504 7.46587L6.83758 7.56676L7.28468 16.4192L9.28213 16.3183ZM8.54377 6.80957L2.27875 0.538222L0.863826 1.95172L7.12885 8.22307L8.54377 6.80957ZM1.54025 2.24449L20.6023 2.83635L20.6643 0.837312L1.60232 0.245454L1.54025 2.24449Z" fill="white"/>
</svg>
