<svg width="521" height="67" viewBox="0 0 521 67" fill="none" xmlns="http://www.w3.org/2000/svg">
<path d="M12.5508 52L0.246094 0.460938H10.8984L18.668 35.8633L28.0898 0.460938H40.4648L49.5 36.4609L57.4102 0.460938H67.8867L55.3711 52H44.332L34.0664 13.4688L23.8359 52H12.5508Z" fill="#4E83EA"/>
<path d="M93.4453 40.1172L103.289 41.7695C102.023 45.3789 100.02 48.1328 97.2773 50.0312C94.5586 51.9062 91.1484 52.8438 87.0469 52.8438C80.5547 52.8438 75.75 50.7227 72.6328 46.4805C70.1719 43.082 68.9414 38.793 68.9414 33.6133C68.9414 27.4258 70.5586 22.5859 73.793 19.0938C77.0273 15.5781 81.1172 13.8203 86.0625 13.8203C91.6172 13.8203 96 15.6602 99.2109 19.3398C102.422 22.9961 103.957 28.6094 103.816 36.1797H79.0664C79.1367 39.1094 79.9336 41.3945 81.457 43.0352C82.9805 44.6523 84.8789 45.4609 87.1523 45.4609C88.6992 45.4609 90 45.0391 91.0547 44.1953C92.1094 43.3516 92.9062 41.9922 93.4453 40.1172ZM94.0078 30.1328C93.9375 27.2734 93.1992 25.1055 91.793 23.6289C90.3867 22.1289 88.6758 21.3789 86.6602 21.3789C84.5039 21.3789 82.7227 22.1641 81.3164 23.7344C79.9102 25.3047 79.2188 27.4375 79.2422 30.1328H94.0078Z" fill="#4E83EA"/>
<path d="M111.48 52V0.460938H121.359V19.0234C124.406 15.5547 128.016 13.8203 132.188 13.8203C136.734 13.8203 140.496 15.4727 143.473 18.7773C146.449 22.0586 147.938 26.7812 147.938 32.9453C147.938 39.3203 146.414 44.2305 143.367 47.6758C140.344 51.1211 136.664 52.8438 132.328 52.8438C130.195 52.8438 128.086 52.3164 126 51.2617C123.938 50.1836 122.156 48.6016 120.656 46.5156V52H111.48ZM121.289 32.5234C121.289 36.3906 121.898 39.25 123.117 41.1016C124.828 43.7266 127.102 45.0391 129.938 45.0391C132.117 45.0391 133.969 44.1133 135.492 42.2617C137.039 40.3867 137.812 37.4453 137.812 33.4375C137.812 29.1719 137.039 26.1016 135.492 24.2266C133.945 22.3281 131.965 21.3789 129.551 21.3789C127.184 21.3789 125.215 22.3047 123.645 24.1562C122.074 25.9844 121.289 28.7734 121.289 32.5234Z" fill="#4E83EA"/>
<path d="M175.992 0.460938H195.012C199.301 0.460938 202.57 0.789062 204.82 1.44531C207.844 2.33594 210.434 3.91797 212.59 6.19141C214.746 8.46484 216.387 11.2539 217.512 14.5586C218.637 17.8398 219.199 21.8945 219.199 26.7227C219.199 30.9648 218.672 34.6211 217.617 37.6914C216.328 41.4414 214.488 44.4766 212.098 46.7969C210.293 48.5547 207.855 49.9258 204.785 50.9102C202.488 51.6367 199.418 52 195.574 52H175.992V0.460938ZM186.398 9.17969V43.3164H194.168C197.074 43.3164 199.172 43.1523 200.461 42.8242C202.148 42.4023 203.543 41.6875 204.645 40.6797C205.77 39.6719 206.684 38.0195 207.387 35.7227C208.09 33.4023 208.441 30.25 208.441 26.2656C208.441 22.2812 208.09 19.2227 207.387 17.0898C206.684 14.957 205.699 13.293 204.434 12.0977C203.168 10.9023 201.562 10.0938 199.617 9.67188C198.164 9.34375 195.316 9.17969 191.074 9.17969H186.398Z" fill="#4E83EA"/>
<path d="M249.609 40.1172L259.453 41.7695C258.188 45.3789 256.184 48.1328 253.441 50.0312C250.723 51.9062 247.312 52.8438 243.211 52.8438C236.719 52.8438 231.914 50.7227 228.797 46.4805C226.336 43.082 225.105 38.793 225.105 33.6133C225.105 27.4258 226.723 22.5859 229.957 19.0938C233.191 15.5781 237.281 13.8203 242.227 13.8203C247.781 13.8203 252.164 15.6602 255.375 19.3398C258.586 22.9961 260.121 28.6094 259.98 36.1797H235.23C235.301 39.1094 236.098 41.3945 237.621 43.0352C239.145 44.6523 241.043 45.4609 243.316 45.4609C244.863 45.4609 246.164 45.0391 247.219 44.1953C248.273 43.3516 249.07 41.9922 249.609 40.1172ZM250.172 30.1328C250.102 27.2734 249.363 25.1055 247.957 23.6289C246.551 22.1289 244.84 21.3789 242.824 21.3789C240.668 21.3789 238.887 22.1641 237.48 23.7344C236.074 25.3047 235.383 27.4375 235.406 30.1328H250.172Z" fill="#4E83EA"/>
<path d="M278.332 52L263.285 14.6641H273.656L280.688 33.7188L282.727 40.082C283.266 38.4648 283.605 37.3984 283.746 36.8828C284.074 35.8281 284.426 34.7734 284.801 33.7188L291.902 14.6641H302.062L287.227 52H278.332Z" fill="#4E83EA"/>
<path d="M329.766 40.1172L339.609 41.7695C338.344 45.3789 336.34 48.1328 333.598 50.0312C330.879 51.9062 327.469 52.8438 323.367 52.8438C316.875 52.8438 312.07 50.7227 308.953 46.4805C306.492 43.082 305.262 38.793 305.262 33.6133C305.262 27.4258 306.879 22.5859 310.113 19.0938C313.348 15.5781 317.438 13.8203 322.383 13.8203C327.938 13.8203 332.32 15.6602 335.531 19.3398C338.742 22.9961 340.277 28.6094 340.137 36.1797H315.387C315.457 39.1094 316.254 41.3945 317.777 43.0352C319.301 44.6523 321.199 45.4609 323.473 45.4609C325.02 45.4609 326.32 45.0391 327.375 44.1953C328.43 43.3516 329.227 41.9922 329.766 40.1172ZM330.328 30.1328C330.258 27.2734 329.52 25.1055 328.113 23.6289C326.707 22.1289 324.996 21.3789 322.98 21.3789C320.824 21.3789 319.043 22.1641 317.637 23.7344C316.23 25.3047 315.539 27.4375 315.562 30.1328H330.328Z" fill="#4E83EA"/>
<path d="M348.223 52V0.460938H358.102V52H348.223Z" fill="#4E83EA"/>
<path d="M365.977 32.8047C365.977 29.5234 366.785 26.3477 368.402 23.2773C370.02 20.207 372.305 17.8633 375.258 16.2461C378.234 14.6289 381.551 13.8203 385.207 13.8203C390.855 13.8203 395.484 15.6602 399.094 19.3398C402.703 22.9961 404.508 27.625 404.508 33.2266C404.508 38.875 402.68 43.5625 399.023 47.2891C395.391 50.9922 390.809 52.8438 385.277 52.8438C381.855 52.8438 378.586 52.0703 375.469 50.5234C372.375 48.9766 370.02 46.7148 368.402 43.7383C366.785 40.7383 365.977 37.0938 365.977 32.8047ZM376.102 33.332C376.102 37.0352 376.98 39.8711 378.738 41.8398C380.496 43.8086 382.664 44.793 385.242 44.793C387.82 44.793 389.977 43.8086 391.711 41.8398C393.469 39.8711 394.348 37.0117 394.348 33.2617C394.348 29.6055 393.469 26.793 391.711 24.8242C389.977 22.8555 387.82 21.8711 385.242 21.8711C382.664 21.8711 380.496 22.8555 378.738 24.8242C376.98 26.793 376.102 29.6289 376.102 33.332Z" fill="#4E83EA"/>
<path d="M411.996 14.6641H421.207V20.1484C422.402 18.2734 424.02 16.75 426.059 15.5781C428.098 14.4062 430.359 13.8203 432.844 13.8203C437.18 13.8203 440.859 15.5195 443.883 18.918C446.906 22.3164 448.418 27.0508 448.418 33.1211C448.418 39.3555 446.895 44.207 443.848 47.6758C440.801 51.1211 437.109 52.8438 432.773 52.8438C430.711 52.8438 428.836 52.4336 427.148 51.6133C425.484 50.793 423.727 49.3867 421.875 47.3945V66.2031H411.996V14.6641ZM421.77 32.6992C421.77 36.8945 422.602 40 424.266 42.0156C425.93 44.0078 427.957 45.0039 430.348 45.0039C432.645 45.0039 434.555 44.0898 436.078 42.2617C437.602 40.4102 438.363 37.3867 438.363 33.1914C438.363 29.2773 437.578 26.3711 436.008 24.4727C434.438 22.5742 432.492 21.625 430.172 21.625C427.758 21.625 425.754 22.5625 424.16 24.4375C422.566 26.2891 421.77 29.043 421.77 32.6992Z" fill="#4E83EA"/>
<path d="M477.914 40.1172L487.758 41.7695C486.492 45.3789 484.488 48.1328 481.746 50.0312C479.027 51.9062 475.617 52.8438 471.516 52.8438C465.023 52.8438 460.219 50.7227 457.102 46.4805C454.641 43.082 453.41 38.793 453.41 33.6133C453.41 27.4258 455.027 22.5859 458.262 19.0938C461.496 15.5781 465.586 13.8203 470.531 13.8203C476.086 13.8203 480.469 15.6602 483.68 19.3398C486.891 22.9961 488.426 28.6094 488.285 36.1797H463.535C463.605 39.1094 464.402 41.3945 465.926 43.0352C467.449 44.6523 469.348 45.4609 471.621 45.4609C473.168 45.4609 474.469 45.0391 475.523 44.1953C476.578 43.3516 477.375 41.9922 477.914 40.1172ZM478.477 30.1328C478.406 27.2734 477.668 25.1055 476.262 23.6289C474.855 22.1289 473.145 21.3789 471.129 21.3789C468.973 21.3789 467.191 22.1641 465.785 23.7344C464.379 25.3047 463.688 27.4375 463.711 30.1328H478.477Z" fill="#4E83EA"/>
<path d="M505.828 52H495.949V14.6641H505.125V19.9727C506.695 17.4648 508.102 15.8125 509.344 15.0156C510.609 14.2188 512.039 13.8203 513.633 13.8203C515.883 13.8203 518.051 14.4414 520.137 15.6836L517.078 24.2969C515.414 23.2188 513.867 22.6797 512.438 22.6797C511.055 22.6797 509.883 23.0664 508.922 23.8398C507.961 24.5898 507.199 25.9609 506.637 27.9531C506.098 29.9453 505.828 34.1172 505.828 40.4688V52Z" fill="#4E83EA"/>
</svg>
