<svg width="21" height="21" viewBox="0 0 21 21" fill="none" xmlns="http://www.w3.org/2000/svg">
<path d="M7.53846 18.0038C2.15385 19.5019 2.15385 15.507 0 15.0076L7.53846 18.0038ZM15.0769 21V17.1349C15.1173 16.6587 15.0479 16.18 14.8734 15.7305C14.6989 15.2811 14.4232 14.8712 14.0646 14.5283C17.4462 14.1787 21 12.9902 21 7.53718C20.9997 6.14278 20.4214 4.80187 19.3846 3.79195C19.8755 2.57202 19.8408 1.22358 19.2877 0.026759C19.2877 0.026759 18.0169 -0.322795 15.0769 1.50487C12.6086 0.884486 10.0068 0.884486 7.53846 1.50487C4.59846 -0.322795 3.32769 0.026759 3.32769 0.026759C2.77456 1.22358 2.73985 2.57202 3.23077 3.79195C2.18629 4.80936 1.60733 6.16239 1.61538 7.56714C1.61538 12.9802 5.16923 14.1687 8.55077 14.5582C8.19646 14.8978 7.92321 15.3027 7.74879 15.7466C7.57438 16.1906 7.50272 16.6636 7.53846 17.1349V21" fill="white"/>
</svg>
