<svg width="16" height="16" viewBox="0 0 16 16" fill="none" xmlns="http://www.w3.org/2000/svg">
<path d="M11.2004 5.05263C12.4734 5.05263 13.6943 5.58496 14.5945 6.53251C15.4947 7.48006 16.0004 8.76522 16.0004 10.1053V16H12.8004V10.1053C12.8004 9.65858 12.6318 9.23019 12.3318 8.91434C12.0317 8.59849 11.6247 8.42105 11.2004 8.42105C10.776 8.42105 10.3691 8.59849 10.069 8.91434C9.76896 9.23019 9.60039 9.65858 9.60039 10.1053V16H6.40039V10.1053C6.40039 8.76522 6.9061 7.48006 7.80628 6.53251C8.70645 5.58496 9.92735 5.05263 11.2004 5.05263Z" fill="white"/>
<path d="M3.2 5.89473H0V16H3.2V5.89473Z" fill="white"/>
<path d="M1.6 3.36842C2.48366 3.36842 3.2 2.61437 3.2 1.68421C3.2 0.754047 2.48366 0 1.6 0C0.716344 0 0 0.754047 0 1.68421C0 2.61437 0.716344 3.36842 1.6 3.36842Z" fill="white"/>
</svg>
