<svg width="172" height="90" viewBox="0 0 172 90" fill="none" xmlns="http://www.w3.org/2000/svg">
<path d="M1.65298 33.5118C1.10719 33.4273 0.596257 33.8012 0.51177 34.347C0.427284 34.8928 0.801239 35.4037 1.34702 35.4882L1.65298 33.5118ZM170 34.5L169.037 34.2304L170 34.5ZM131 4.5L131.152 5.48837L131.371 5.45474L131.555 5.33205L131 4.5ZM95 63.5L94.0161 63.3211L94.0148 63.3284L94.0136 63.3356L95 63.5ZM90.5 89.5L97.9528 80.6802L86.5883 78.6358L90.5 89.5ZM8.42096 36.5548C8.96738 36.6351 9.47543 36.2573 9.55572 35.7108C9.63602 35.1644 9.25815 34.6564 8.71174 34.5761L8.42096 36.5548ZM22.9302 36.5665C22.3828 36.4935 21.8798 36.8781 21.8068 37.4255C21.7338 37.973 22.1184 38.4759 22.6659 38.5489L22.9302 36.5665ZM36.9314 40.3605C37.4797 40.4266 37.9779 40.0358 38.044 39.4875C38.1102 38.9392 37.7194 38.441 37.171 38.3749L36.9314 40.3605ZM51.4192 40.0032C50.8701 39.944 50.377 40.3412 50.3178 40.8903C50.2587 41.4394 50.6558 41.9325 51.2049 41.9917L51.4192 40.0032ZM65.5069 43.4341C66.0568 43.4857 66.5443 43.0817 66.5958 42.5318C66.6473 41.9819 66.2433 41.4944 65.6935 41.4429L65.5069 43.4341ZM79.9875 42.6697C79.4369 42.627 78.9559 43.0388 78.9132 43.5894C78.8705 44.14 79.2823 44.621 79.8329 44.6637L79.9875 42.6697ZM94.182 45.641C94.7334 45.673 95.2062 45.252 95.2382 44.7006C95.2702 44.1493 94.8491 43.6764 94.2978 43.6444L94.182 45.641ZM108.616 44.3038C108.064 44.2856 107.602 44.7184 107.584 45.2703C107.565 45.8223 107.998 46.2845 108.55 46.3027L108.616 44.3038ZM122.929 46.5425C123.481 46.5416 123.928 46.0931 123.927 45.5408C123.926 44.9885 123.478 44.5416 122.925 44.5425L122.929 46.5425ZM137.249 44.1629C136.697 44.1938 136.275 44.6659 136.306 45.2173C136.337 45.7687 136.809 46.1907 137.36 46.1598L137.249 44.1629ZM151.749 44.6969C152.294 44.6086 152.664 44.0951 152.576 43.5499C152.488 43.0047 151.974 42.6343 151.429 42.7226L151.749 44.6969ZM164.793 38.7651C164.311 39.0348 164.139 39.6441 164.408 40.1261C164.678 40.6081 165.287 40.7802 165.769 40.5105L164.793 38.7651ZM171.964 26.8995C171.946 26.3475 171.484 25.9143 170.932 25.9319C170.38 25.9496 169.947 26.4114 169.965 26.9634L171.964 26.8995ZM164.708 13.6066C165.063 14.0298 165.694 14.0852 166.117 13.7303C166.54 13.3755 166.596 12.7447 166.241 12.3215L164.708 13.6066ZM153.498 3.26169C152.986 3.05381 152.403 3.30008 152.195 3.81174C151.987 4.32341 152.233 4.90672 152.745 5.1146L153.498 3.26169ZM138.278 2.9551C138.826 2.88219 139.21 2.37929 139.137 1.83184C139.064 1.28439 138.562 0.899696 138.014 0.972605L138.278 2.9551ZM122.217 7.31087C121.762 7.62346 121.646 8.24596 121.959 8.70127C122.271 9.15658 122.894 9.27228 123.349 8.95969L122.217 7.31087ZM111.275 21.7958C111.581 21.3362 111.457 20.7153 110.997 20.4091C110.538 20.1028 109.917 20.2271 109.611 20.6867L111.275 21.7958ZM101.279 36.9639C101.076 37.4779 101.329 38.0584 101.843 38.2606C102.357 38.4627 102.938 38.21 103.14 37.696L101.279 36.9639ZM97.8304 54.8536C97.9585 54.3164 97.6268 53.7771 97.0896 53.649C96.5524 53.5209 96.013 53.8525 95.8849 54.3897L97.8304 54.8536ZM92.9215 69.8408C92.8294 70.3854 93.1962 70.9015 93.7407 70.9936C94.2853 71.0857 94.8014 70.7189 94.8935 70.1744L92.9215 69.8408ZM92.6522 83.1843C92.748 82.6404 92.3847 82.1218 91.8408 82.0261C91.2969 81.9303 90.7783 82.2935 90.6825 82.8375L92.6522 83.1843ZM1.34702 35.4882C3.6115 35.8388 5.9734 36.1952 8.42096 36.5548L8.71174 34.5761C6.26908 34.2171 3.91223 33.8615 1.65298 33.5118L1.34702 35.4882ZM22.6659 38.5489C27.2572 39.1611 32.0312 39.7691 36.9314 40.3605L37.171 38.3749C32.2793 37.7845 27.5135 37.1776 22.9302 36.5665L22.6659 38.5489ZM51.2049 41.9917C55.9247 42.5003 60.7071 42.9844 65.5069 43.4341L65.6935 41.4429C60.9035 40.9941 56.1304 40.5109 51.4192 40.0032L51.2049 41.9917ZM79.8329 44.6637C84.6587 45.0379 89.4571 45.367 94.182 45.641L94.2978 43.6444C89.5871 43.3712 84.8016 43.0429 79.9875 42.6697L79.8329 44.6637ZM108.55 46.3027C113.508 46.466 118.321 46.5505 122.929 46.5425L122.925 44.5425C118.344 44.5504 113.554 44.4665 108.616 44.3038L108.55 46.3027ZM137.36 46.1598C142.648 45.8636 147.49 45.3866 151.749 44.6969L151.429 42.7226C147.258 43.3981 142.489 43.8694 137.249 44.1629L137.36 46.1598ZM165.769 40.5105C168.413 39.0313 170.296 37.1528 170.963 34.7696L169.037 34.2304C168.57 35.8975 167.197 37.42 164.793 38.7651L165.769 40.5105ZM170.963 34.7696C171.731 32.0252 172.043 29.396 171.964 26.8995L169.965 26.9634C170.038 29.246 169.753 31.672 169.037 34.2304L170.963 34.7696ZM166.241 12.3215C162.864 8.29371 158.321 5.22131 153.498 3.26169L152.745 5.1146C157.312 6.9701 161.57 9.86434 164.708 13.6066L166.241 12.3215ZM138.014 0.972605C135.218 1.345 132.618 2.21939 130.445 3.66795L131.555 5.33205C133.425 4.0853 135.72 3.29578 138.278 2.9551L138.014 0.972605ZM130.848 3.51163C128.483 3.87545 125.488 5.06537 122.217 7.31087L123.349 8.95969C126.44 6.83796 129.156 5.79548 131.152 5.48837L130.848 3.51163ZM109.611 20.6867C106.687 25.0747 103.843 30.4461 101.279 36.9639L103.14 37.696C105.656 31.2985 108.437 26.0551 111.275 21.7958L109.611 20.6867ZM95.8849 54.3897C95.21 57.2202 94.5845 60.1952 94.0161 63.3211L95.9839 63.6789C96.546 60.5873 97.1641 57.6477 97.8304 54.8536L95.8849 54.3897ZM94.0136 63.3356C93.6286 65.6459 93.2641 67.8154 92.9215 69.8408L94.8935 70.1744C95.2364 68.1474 95.6011 65.9763 95.9864 63.6644L94.0136 63.3356Z" fill="url(#paint0_linear_64_8157)"/>
<defs>
<linearGradient id="paint0_linear_64_8157" x1="142.5" y1="67.5" x2="15.5" y2="35.5" gradientUnits="userSpaceOnUse">
<stop stop-color="#4E83EA"/>
<stop offset="1" stop-color="#4E83EA" stop-opacity="0"/>
</linearGradient>
</defs>
</svg>
